<svg width="56" height="57" viewBox="0 0 56 57" xmlns="http://www.w3.org/2000/svg"><title>Group</title><g fill="none" fill-rule="evenodd"><path d="M14.49 56.276H1.16c-.402 0-.776-.213-.987-.564-.21-.35-.23-.79-.05-1.158L6.78 40.89c.198-.403.6-.658 1.04-.658.438 0 .84.255 1.036.658l6.594 13.53c.126.19.2.42.2.666 0 .658-.52 1.19-1.16 1.19M54.48 36.366H41.15c-.4 0-.774-.213-.986-.564-.21-.35-.23-.79-.05-1.158l6.66-13.664c.195-.403.597-.658 1.036-.658.44 0 .84.255 1.038.658l6.593 13.53c.127.19.2.42.2.666 0 .657-.52 1.19-1.16 1.19M34.574 16.804h-13.33c-.4 0-.775-.213-.986-.564-.21-.35-.23-.79-.05-1.158l6.658-13.665c.197-.402.598-.657 1.038-.657.44 0 .84.255 1.037.657l6.595 13.53c.126.19.2.42.2.667 0 .657-.52 1.19-1.16 1.19" fill="#3FB1E5"/><path d="M21.29 56.26c-.633 0-1.146-.513-1.146-1.146V41.956c0-.633.513-1.146 1.146-1.146h13.158c.633 0 1.146.513 1.146 1.146v13.158c0 .633-.513 1.146-1.146 1.146H21.29zM1.265 36.413C.632 36.413.12 35.9.12 35.267V22.11c0-.634.512-1.147 1.145-1.147h13.158c.633 0 1.146.513 1.146 1.146v13.157c0 .633-.514 1.146-1.147 1.146H1.265zM41.137 16.744c-.633 0-1.146-.512-1.146-1.146V2.44c0-.633.514-1.145 1.147-1.145h13.157c.633 0 1.147.512 1.147 1.145v13.158c0 .634-.513 1.146-1.146 1.146H41.137z" fill="#38BB4C"/><path d="M47.808 56.276c-4.26 0-7.725-3.465-7.725-7.725 0-4.258 3.466-7.723 7.725-7.723 4.26 0 7.725 3.465 7.725 7.724 0 4.26-3.466 7.726-7.725 7.726M27.81 36.413c-4.26 0-7.725-3.465-7.725-7.725s3.466-7.725 7.725-7.725c4.26 0 7.725 3.465 7.725 7.725s-3.466 7.725-7.725 7.725M7.844 16.744C3.584 16.744.12 13.28.12 9.02s3.465-7.725 7.724-7.725c4.26 0 7.725 3.465 7.725 7.724 0 4.26-3.467 7.724-7.726 7.724" fill="#FF2F57"/></g></svg>